<mxfile host="app.diagrams.net" modified="2024-01-24T02:14:33.962Z" agent="Mozilla/5.0 (X11; Linux x86_64) AppleWebKit/537.36 (KHTML, like Gecko) Chrome/120.0.0.0 Safari/537.36" etag="XzFvLS1ZkLP6dWqtga7w" version="23.0.0" type="dropbox">
  <diagram name="Page-1" id="oe5LCpJNNdDDZgY1mVab">
    <mxGraphModel dx="977" dy="507" grid="1" gridSize="10" guides="1" tooltips="1" connect="1" arrows="1" fold="1" page="1" pageScale="1" pageWidth="850" pageHeight="1100" math="0" shadow="0">
      <root>
        <mxCell id="0" />
        <mxCell id="1" parent="0" />
        <mxCell id="51Dr0H4iKES2ujkx1o7Y-1" value="Connect Activity" style="html=1;dashed=0;whiteSpace=wrap;align=left;verticalAlign=top;" vertex="1" parent="1">
          <mxGeometry x="80" y="90" width="740" height="130" as="geometry" />
        </mxCell>
        <mxCell id="51Dr0H4iKES2ujkx1o7Y-2" value="WebSocket Connect" style="html=1;shape=mxgraph.infographic.ribbonSimple;notch1=20;notch2=0;align=center;verticalAlign=middle;fontSize=14;fontStyle=0;fillColor=#FFFFFF;flipH=0;spacingRight=0;spacingLeft=14;whiteSpace=wrap;" vertex="1" parent="1">
          <mxGeometry x="20" y="140" width="170" height="40" as="geometry" />
        </mxCell>
        <mxCell id="51Dr0H4iKES2ujkx1o7Y-3" value="Extract player ID from connection request cookie." style="html=1;align=center;verticalAlign=top;rounded=1;absoluteArcSize=1;arcSize=10;dashed=0;whiteSpace=wrap;" vertex="1" parent="1">
          <mxGeometry x="280" y="132.5" width="130" height="55" as="geometry" />
        </mxCell>
        <mxCell id="51Dr0H4iKES2ujkx1o7Y-4" value="" style="endArrow=open;startArrow=none;endFill=0;startFill=0;endSize=8;html=1;verticalAlign=bottom;labelBackgroundColor=none;strokeWidth=1;rounded=0;" edge="1" parent="1" source="51Dr0H4iKES2ujkx1o7Y-2" target="51Dr0H4iKES2ujkx1o7Y-3">
          <mxGeometry width="160" relative="1" as="geometry">
            <mxPoint x="200" y="125" as="sourcePoint" />
            <mxPoint x="570" y="180" as="targetPoint" />
          </mxGeometry>
        </mxCell>
        <mxCell id="51Dr0H4iKES2ujkx1o7Y-5" value="" style="shape=mxgraph.lean_mapping.electronic_info_flow_edge;html=1;rounded=0;" edge="1" parent="1" source="51Dr0H4iKES2ujkx1o7Y-3" target="51Dr0H4iKES2ujkx1o7Y-10">
          <mxGeometry width="160" relative="1" as="geometry">
            <mxPoint x="539" y="135" as="sourcePoint" />
            <mxPoint x="440" y="50" as="targetPoint" />
          </mxGeometry>
        </mxCell>
        <mxCell id="51Dr0H4iKES2ujkx1o7Y-6" value="Register the socket under the extracted player ID." style="html=1;align=center;verticalAlign=top;rounded=1;absoluteArcSize=1;arcSize=10;dashed=0;whiteSpace=wrap;" vertex="1" parent="1">
          <mxGeometry x="490" y="132.5" width="130" height="55" as="geometry" />
        </mxCell>
        <mxCell id="51Dr0H4iKES2ujkx1o7Y-7" value="" style="endArrow=open;startArrow=none;endFill=0;startFill=0;endSize=8;html=1;verticalAlign=bottom;labelBackgroundColor=none;strokeWidth=1;rounded=0;" edge="1" parent="1" source="51Dr0H4iKES2ujkx1o7Y-3" target="51Dr0H4iKES2ujkx1o7Y-6">
          <mxGeometry width="160" relative="1" as="geometry">
            <mxPoint x="200" y="170" as="sourcePoint" />
            <mxPoint x="290" y="170" as="targetPoint" />
          </mxGeometry>
        </mxCell>
        <mxCell id="51Dr0H4iKES2ujkx1o7Y-8" value="" style="ellipse;html=1;shape=endState;fillColor=strokeColor;" vertex="1" parent="1">
          <mxGeometry x="710" y="145" width="30" height="30" as="geometry" />
        </mxCell>
        <mxCell id="51Dr0H4iKES2ujkx1o7Y-9" value="" style="endArrow=open;startArrow=none;endFill=0;startFill=0;endSize=8;html=1;verticalAlign=bottom;labelBackgroundColor=none;strokeWidth=1;rounded=0;" edge="1" parent="1" source="51Dr0H4iKES2ujkx1o7Y-6" target="51Dr0H4iKES2ujkx1o7Y-8">
          <mxGeometry width="160" relative="1" as="geometry">
            <mxPoint x="420" y="170" as="sourcePoint" />
            <mxPoint x="500" y="170" as="targetPoint" />
          </mxGeometry>
        </mxCell>
        <mxCell id="51Dr0H4iKES2ujkx1o7Y-10" value="Close connection." style="html=1;align=center;verticalAlign=top;rounded=1;absoluteArcSize=1;arcSize=10;dashed=0;whiteSpace=wrap;" vertex="1" parent="1">
          <mxGeometry x="425" y="20" width="130" height="35" as="geometry" />
        </mxCell>
      </root>
    </mxGraphModel>
  </diagram>
</mxfile>
